# xmcd
#
# Track frame offsets: 
#        150
#        16224
#        33758
#        56528
#        72796
#        92475
#        108325
#        126124
#        142947
#        159199
#        174869
#
# Disc length: 2582 seconds
#
# Revision: 0
# Processed by: cddbd v1.5.2PL0 Copyright (c) Steve Scherf et al.
# Submitted via: ExactAudioCopy v0.99pb4
#
DISCID=780a140b
DTITLE=Timothea - I'm Still Standing
DYEAR=2003
DGENRE=blues
TTITLE0=In the middle of the night
TTITLE1=Time for a change
TTITLE2=I'm still standing
TTITLE3=Maybe later
TTITLE4=Sunrise
TTITLE5=Crawfish
TTITLE6=I belong to you
TTITLE7=Just like you
TTITLE8=Let down by love
TTITLE9=Can't buy you class
TTITLE10=As the blind all lead the blind
EXTD=
EXTT0=
EXTT1=
EXTT2=
EXTT3=
EXTT4=
EXTT5=
EXTT6=
EXTT7=
EXTT8=
EXTT9=
EXTT10=
PLAYORDER=
